<svg width="42" height="42" viewBox="0 0 42 42" fill="none" xmlns="http://www.w3.org/2000/svg">
<circle opacity="0.1" cx="21.2405" cy="20.7405" r="20.7405" fill="#523BB1"/>
<path d="M25.2407 24.7407L21.2407 20.7407L17.2407 24.7407" stroke="#523BB1" stroke-width="1.2" stroke-linecap="round" stroke-linejoin="round"/>
<path d="M21.2407 20.7407V29.7407" stroke="#523BB1" stroke-width="1.2" stroke-linecap="round" stroke-linejoin="round"/>
<path d="M29.6307 27.1307C30.606 26.599 31.3765 25.7576 31.8206 24.7393C32.2646 23.7211 32.3569 22.5839 32.0829 21.5074C31.8089 20.4309 31.1842 19.4762 30.3074 18.7942C29.4305 18.1121 28.3515 17.7414 27.2407 17.7407H25.9807C25.678 16.5699 25.1138 15.483 24.3306 14.5617C23.5474 13.6404 22.5655 12.9086 21.4588 12.4213C20.352 11.9341 19.1492 11.7041 17.9408 11.7486C16.7324 11.7931 15.5497 12.111 14.4819 12.6784C13.414 13.2457 12.4886 14.0478 11.7753 15.0243C11.062 16.0008 10.5794 17.1262 10.3637 18.3161C10.148 19.506 10.2048 20.7292 10.5299 21.894C10.855 23.0587 11.4399 24.1346 12.2407 25.0407" stroke="#523BB1" stroke-width="1.2" stroke-linecap="round" stroke-linejoin="round"/>
<path d="M25.2407 24.7407L21.2407 20.7407L17.2407 24.7407" stroke="#523BB1" stroke-width="1.2" stroke-linecap="round" stroke-linejoin="round"/>
</svg>
