<svg width="16" height="15" viewBox="0 0 16 15" fill="none" xmlns="http://www.w3.org/2000/svg">
<path d="M2.39095 7.12495C2.38991 6.38371 2.5356 5.64959 2.81961 4.96491C3.10361 4.28024 3.52033 3.65854 4.04573 3.13567C4.57112 2.61279 5.19482 2.19907 5.88085 1.91837C6.56689 1.63766 7.3017 1.49551 8.04293 1.50011C11.1359 1.5231 13.6098 4.09396 13.6098 7.19557V7.74995C13.6098 10.548 14.1953 12.1717 14.7109 13.0592C14.7664 13.154 14.796 13.2618 14.7965 13.3717C14.7971 13.4816 14.7687 13.5897 14.7142 13.6851C14.6597 13.7805 14.581 13.8599 14.486 13.9151C14.391 13.9704 14.2831 13.9997 14.1732 14H1.82693C1.71703 13.9997 1.60914 13.9704 1.51415 13.9151C1.41917 13.8598 1.34045 13.7805 1.28592 13.685C1.2314 13.5896 1.20302 13.4815 1.20362 13.3716C1.20423 13.2617 1.23381 13.1539 1.28938 13.059C1.80526 12.1716 2.39094 10.5479 2.39094 7.74995L2.39095 7.12495Z" stroke="#374151" stroke-width="1.5" stroke-linecap="round" stroke-linejoin="round"/>
</svg>
