<svg width="22" height="22" viewBox="0 0 22 22" fill="none" xmlns="http://www.w3.org/2000/svg">
<path fill-rule="evenodd" clip-rule="evenodd" d="M10.3511 3.03246C9.99018 3.50376 9.58278 4.23092 8.99104 5.29246L8.69065 5.83133C8.67254 5.86381 8.65466 5.89599 8.63696 5.92785C8.36129 6.42395 8.12861 6.84267 7.75369 7.12729C7.37473 7.41497 6.91276 7.51879 6.37586 7.63944C6.34135 7.6472 6.30654 7.65502 6.27142 7.66297L5.6881 7.79495C4.53739 8.05531 3.75456 8.23445 3.21837 8.44575C2.69514 8.65195 2.58469 8.8209 2.5426 8.95628C2.49817 9.09915 2.49684 9.3177 2.80965 9.8146C3.12713 10.3189 3.66274 10.948 4.44606 11.864L4.84373 12.329C4.86684 12.356 4.88974 12.3827 4.91241 12.4092C5.28184 12.8401 5.58987 13.1994 5.73117 13.6538C5.87161 14.1054 5.82506 14.58 5.76862 15.1554C5.76516 15.1907 5.76166 15.2264 5.75817 15.2624L5.69804 15.8829C5.57971 17.1041 5.49992 17.9449 5.5269 18.5506C5.55383 19.1551 5.68153 19.3222 5.78305 19.3993C5.87335 19.4679 6.04026 19.5437 6.58406 19.3879C7.13669 19.2296 7.87117 18.8936 8.94864 18.3975L9.4948 18.146C9.52843 18.1305 9.56175 18.1151 9.59478 18.0998C10.0942 17.869 10.5274 17.6687 11.0001 17.6687C11.4728 17.6687 11.9061 17.8689 12.4055 18.0998C12.4385 18.1151 12.4718 18.1305 12.5055 18.146L13.0516 18.3975C14.1291 18.8936 14.8636 19.2296 15.4162 19.3879C15.96 19.5437 16.1269 19.4679 16.2172 19.3993C16.3187 19.3222 16.4464 19.1551 16.4734 18.5506C16.5003 17.9449 16.4206 17.1041 16.3022 15.8829L16.2421 15.2624C16.2386 15.2264 16.2351 15.1907 16.2317 15.1554C16.1752 14.58 16.1287 14.1054 16.2691 13.6538C16.4104 13.1994 16.7184 12.8401 17.0879 12.4092C17.1105 12.3827 17.1334 12.356 17.1565 12.329L17.5542 11.864C18.3375 10.948 18.8731 10.3189 19.1906 9.8146C19.5034 9.3177 19.5021 9.09915 19.4577 8.95628C19.4156 8.8209 19.3051 8.65195 18.7819 8.44575C18.2457 8.23445 17.4629 8.05531 16.3122 7.79495L15.7289 7.66297C15.6937 7.65502 15.6589 7.6472 15.6244 7.63944C15.0875 7.51879 14.6255 7.41497 14.2466 7.12729C13.8717 6.84267 13.639 6.42395 13.3633 5.92785C13.3456 5.89599 13.3277 5.86381 13.3096 5.83133L13.0092 5.29246C12.4175 4.23092 12.0101 3.50376 11.6492 3.03246C11.2886 2.5616 11.1044 2.52087 11.0001 2.52087C10.8959 2.52087 10.7117 2.5616 10.3511 3.03246ZM9.25943 2.19646C9.69639 1.62587 10.2365 1.14587 11.0001 1.14587C11.7638 1.14587 12.3039 1.62587 12.7408 2.19646C13.1702 2.75713 13.6255 3.57391 14.1819 4.57216L14.5106 5.16184C14.8705 5.80734 14.9625 5.94446 15.078 6.03211C15.1891 6.11648 15.3325 6.16353 16.0323 6.32187L16.674 6.46705C17.7516 6.71085 18.6395 6.9117 19.286 7.16651C19.9572 7.43101 20.5445 7.82085 20.7707 8.54798C20.9944 9.2676 20.7429 9.92967 20.3543 10.5471C19.9766 11.147 19.3734 11.8524 18.6365 12.714L18.2015 13.2226C17.7276 13.7768 17.6286 13.9124 17.5821 14.0621C17.5346 14.2147 17.5391 14.391 17.6107 15.1298L17.6763 15.8064C17.7879 16.9578 17.8789 17.8967 17.847 18.6118C17.8146 19.3396 17.6493 20.0385 17.0486 20.4945C16.4367 20.959 15.7248 20.9067 15.0375 20.7097C14.3711 20.5188 13.5403 20.1362 12.5314 19.6717L11.9304 19.395C11.2728 19.0922 11.1321 19.0437 11.0001 19.0437C10.8682 19.0437 10.7274 19.0922 10.0699 19.395L9.46885 19.6717C8.46002 20.1362 7.62922 20.5188 6.9628 20.7097C6.2755 20.9067 5.56355 20.959 4.95166 20.4945C4.35099 20.0385 4.18569 19.3396 4.15326 18.6118C4.12141 17.8967 4.21242 16.9578 4.32401 15.8064L4.38958 15.1298C4.46117 14.391 4.46563 14.2147 4.41819 14.0621C4.37165 13.9124 4.27265 13.7768 3.79873 13.2226L3.36378 12.714C2.62692 11.8524 2.02369 11.1471 1.64602 10.5471C1.25732 9.92967 1.00583 9.2676 1.22962 8.54798C1.45573 7.82085 2.04307 7.43101 2.71424 7.16651C3.36082 6.9117 4.24863 6.71085 5.3263 6.46705L5.38466 6.45385L5.96798 6.32187C6.66779 6.16353 6.81117 6.11648 6.92231 6.03211C7.03777 5.94446 7.12982 5.80734 7.48965 5.16184L7.81837 4.57215C8.3748 3.5739 8.83008 2.75712 9.25943 2.19646Z" fill="#1C1C1C"/>
</svg>
