<svg width="40" height="40" viewBox="0 0 40 40" fill="none" xmlns="http://www.w3.org/2000/svg">
<circle cx="20" cy="20" r="20" fill="#F9F9F9"/>
<g clip-path="url(#clip0_1_2451)">
<path d="M17.5 27.5H22.5" stroke="#374151" stroke-width="1.5" stroke-linecap="round" stroke-linejoin="round"/>
<path d="M14.3909 18.125C14.3899 17.3837 14.5356 16.6496 14.8196 15.9649C15.1036 15.2802 15.5203 14.6585 16.0457 14.1357C16.5711 13.6128 17.1948 13.1991 17.8809 12.9184C18.5669 12.6377 19.3017 12.4955 20.0429 12.5001C23.1359 12.5231 25.6098 15.094 25.6098 18.1956V18.75C25.6098 21.548 26.1953 23.1717 26.7109 24.0592C26.7664 24.154 26.796 24.2618 26.7965 24.3717C26.7971 24.4816 26.7687 24.5897 26.7142 24.6851C26.6597 24.7805 26.581 24.8599 26.486 24.9151C26.391 24.9704 26.2831 24.9997 26.1732 25H13.8269C13.717 24.9997 13.6091 24.9704 13.5142 24.9151C13.4192 24.8598 13.3404 24.7805 13.2859 24.685C13.2314 24.5896 13.203 24.4815 13.2036 24.3716C13.2042 24.2617 13.2338 24.1539 13.2894 24.059C13.8053 23.1716 14.3909 21.5479 14.3909 18.75L14.3909 18.125Z" stroke="#374151" stroke-width="1.5" stroke-linecap="round" stroke-linejoin="round"/>
</g>
<defs>
<clipPath id="clip0_1_2451">
<rect width="20" height="20" fill="white" transform="translate(10 10)"/>
</clipPath>
</defs>
</svg>
