<svg width="16" height="16" viewBox="0 0 16 16" fill="none" xmlns="http://www.w3.org/2000/svg">
<path d="M8.66683 7.33337V4.00004C8.66683 3.82323 8.59659 3.65366 8.47157 3.52864C8.34654 3.40361 8.17697 3.33337 8.00016 3.33337C7.82335 3.33337 7.65378 3.40361 7.52876 3.52864C7.40373 3.65366 7.3335 3.82323 7.3335 4.00004V8.00004C7.3335 8.17685 7.40373 8.34642 7.52876 8.47145C7.65378 8.59647 7.82335 8.66671 8.00016 8.66671H11.3335C11.5103 8.66671 11.6799 8.59647 11.8049 8.47145C11.9299 8.34642 12.0002 8.17685 12.0002 8.00004C12.0002 7.82323 11.9299 7.65366 11.8049 7.52864C11.6799 7.40361 11.5103 7.33337 11.3335 7.33337H8.66683ZM8.00016 14.6667C4.31816 14.6667 1.3335 11.682 1.3335 8.00004C1.3335 4.31804 4.31816 1.33337 8.00016 1.33337C11.6822 1.33337 14.6668 4.31804 14.6668 8.00004C14.6668 11.682 11.6822 14.6667 8.00016 14.6667Z" fill="#32B768"/>
</svg>
