<svg width="24" height="24" viewBox="0 0 24 24" fill="none" xmlns="http://www.w3.org/2000/svg">
<path fill-rule="evenodd" clip-rule="evenodd" d="M9.25961 3.09862C9.6636 2.0878 10.9948 1.46283 12.0272 2.24926C13.7471 3.55941 15.9044 5.48556 17.6398 7.68871C19.3595 9.87204 20.75 12.4348 20.75 15.0001C20.75 17.2933 20.0398 18.9976 19.0117 20.2181C17.9933 21.427 16.6994 22.1193 15.5816 22.4672C15.0076 22.6458 14.4825 22.3826 14.2275 21.9546C13.9871 21.5512 13.9859 21.0148 14.2863 20.5831C15.1436 19.3511 16.05 17.5794 16.05 16.0001C16.05 15.2165 15.7123 14.289 15.1668 13.3372C14.7566 12.6215 14.2539 11.9352 13.7643 11.3465C13.6627 12.7494 13.3578 14.5121 12.412 15.9697C11.9822 16.632 11.0267 16.706 10.518 16.0627C10.3592 15.8619 10.2023 15.6413 10.0588 15.4394C10.0501 15.4272 10.0415 15.4151 10.033 15.4031C9.9545 15.2928 9.87986 15.1882 9.80763 15.0901C9.12187 15.7731 8.48333 16.5903 8.48333 17.5001C8.48333 18.3038 8.88448 19.4026 9.35898 20.3335C9.61561 20.837 9.50832 21.3951 9.1994 21.7606C8.87092 22.1493 8.27312 22.3491 7.70569 22.0207C5.76159 20.8953 3.25 18.4917 3.25 15.0001C3.25 14.0531 3.57109 13.0736 4.0203 12.1169C4.47254 11.1536 5.0858 10.1501 5.72984 9.14745C5.95297 8.8001 6.17941 8.45312 6.40546 8.10674C7.51002 6.41417 8.60528 4.73586 9.25961 3.09862ZM10.8983 3.41749C10.7958 3.45298 10.6992 3.53852 10.6525 3.6553C9.93718 5.4451 8.74008 7.27719 7.63532 8.96796C7.41569 9.30409 7.19971 9.63464 6.99189 9.95816C6.35264 10.9533 5.78547 11.8867 5.3781 12.7544C4.96769 13.6285 4.75 14.3738 4.75 15.0001C4.75 17.2946 6.15653 19.0762 7.63307 20.1783C7.27845 19.3371 6.98333 18.3671 6.98333 17.5001C6.98333 15.7694 8.2827 14.4629 9.00894 13.7753C9.47929 13.3299 10.2914 13.29 10.7647 13.8741C10.9359 14.0854 11.1032 14.3198 11.2553 14.5337L11.2734 14.5591C11.3161 14.6191 11.3576 14.6775 11.3983 14.7343C12.0671 13.4599 12.2543 11.9056 12.3012 10.6263C12.3204 10.0998 12.6468 9.6835 13.0747 9.50941C13.5118 9.33159 14.0549 9.40993 14.4285 9.82325L13.8721 10.3262L14.4285 9.82325C15.0949 10.5605 15.8626 11.5348 16.4682 12.5913C17.0657 13.6337 17.55 14.833 17.55 16.0001C17.55 17.6927 16.7822 19.4101 16.0062 20.6886C16.6582 20.3693 17.3159 19.9029 17.8644 19.2517C18.6512 18.3177 19.25 16.9612 19.25 15.0001C19.25 12.9434 18.1125 10.7131 16.4614 8.61685C14.8259 6.54039 12.7696 4.7004 11.1183 3.44249C11.0636 3.40085 10.993 3.38472 10.8983 3.41749Z" fill="#1C1C1C"/>
</svg>
