<svg width="16" height="16" viewBox="0 0 16 16" fill="none" xmlns="http://www.w3.org/2000/svg">
<g clip-path="url(#clip0_1_2156)">
<path d="M7.99951 0.999878C6.54135 1.00161 5.14341 1.58163 4.11234 2.6127C3.08126 3.64378 2.50124 5.04172 2.49951 6.49988C2.49951 11.2059 7.49951 14.7606 7.7124 14.9095C7.7966 14.9683 7.89682 14.9999 7.99951 14.9999C8.10221 14.9999 8.20243 14.9683 8.28662 14.9095C8.49951 14.7606 13.4995 11.2059 13.4995 6.49988C13.4978 5.04172 12.9178 3.64378 11.8867 2.6127C10.8556 1.58163 9.45767 1.00161 7.99951 0.999878ZM7.99988 4.50006C8.39544 4.50006 8.78212 4.61736 9.11102 4.83712C9.43992 5.05688 9.69626 5.36924 9.84764 5.73469C9.99901 6.10014 10.0386 6.50228 9.96145 6.89024C9.88428 7.2782 9.6938 7.63457 9.41409 7.91427C9.13439 8.19398 8.77802 8.38446 8.39006 8.46163C8.0021 8.5388 7.59996 8.49919 7.23451 8.34782C6.86906 8.19644 6.5567 7.9401 6.33694 7.6112C6.11718 7.2823 5.99988 6.89562 5.99988 6.50006C5.99987 6.23741 6.0516 5.97734 6.1521 5.73468C6.25261 5.49203 6.39993 5.27155 6.58565 5.08583C6.77137 4.90011 6.99185 4.75279 7.2345 4.65229C7.47716 4.55178 7.73723 4.50005 7.99988 4.50006Z" fill="#32B768"/>
</g>
<defs>
<clipPath id="clip0_1_2156">
<rect width="16" height="16" fill="white"/>
</clipPath>
</defs>
</svg>
