<svg width="32" height="30" viewBox="0 0 32 30" fill="none" xmlns="http://www.w3.org/2000/svg">
<path d="M29.3334 11.25V18.75C29.3334 21.875 28.6668 24.0625 27.1734 25.475L18.6667 17.5L28.9734 7.83752C29.2134 8.82502 29.3334 9.95002 29.3334 11.25Z" stroke="white" stroke-width="1.5" stroke-linecap="round" stroke-linejoin="round"/>
<path d="M28.9734 7.83751L8.36007 27.1625C4.34673 26.3 2.66675 23.7 2.66675 18.75V11.25C2.66675 5 5.33341 2.5 12.0001 2.5H20.0001C25.2801 2.5 28.0534 4.07501 28.9734 7.83751Z" stroke="white" stroke-width="1.5" stroke-linecap="round" stroke-linejoin="round"/>
<path d="M27.1732 25.475C25.6666 26.875 23.3332 27.5 19.9999 27.5H11.9999C10.6132 27.5 9.4132 27.3875 8.35986 27.1625L18.6665 17.5L27.1732 25.475Z" stroke="white" stroke-width="1.5" stroke-linecap="round" stroke-linejoin="round"/>
<path d="M8.31986 9.97502C9.22653 6.31252 15.0932 6.31252 15.9999 9.97502C16.5199 12.125 15.0799 13.95 13.8132 15.075C12.8932 15.9 11.4399 15.9 10.5065 15.075C9.23988 13.95 7.78653 12.125 8.31986 9.97502Z" stroke="white" stroke-width="1.5"/>
<path d="M12.1261 10.875H12.1381" stroke="white" stroke-width="2" stroke-linecap="round" stroke-linejoin="round"/>
</svg>
