<svg width="20" height="20" viewBox="0 0 20 20" fill="none" xmlns="http://www.w3.org/2000/svg">
<path d="M10.0002 15.2709C10.3799 15.2709 10.6877 14.9631 10.6877 14.5834V9.08337C10.6877 8.70368 10.3799 8.39587 10.0002 8.39587C9.62047 8.39587 9.31266 8.70368 9.31266 9.08337V14.5834C9.31266 14.9631 9.62047 15.2709 10.0002 15.2709Z" fill="black"/>
<path d="M10.0002 5.41671C10.5064 5.41671 10.9168 5.82711 10.9168 6.33337C10.9168 6.83963 10.5064 7.25004 10.0002 7.25004C9.4939 7.25004 9.0835 6.83963 9.0835 6.33337C9.0835 5.82711 9.4939 5.41671 10.0002 5.41671Z" fill="black"/>
<path fill-rule="evenodd" clip-rule="evenodd" d="M0.145996 10C0.145996 4.55773 4.55786 0.145874 10.0002 0.145874C15.4425 0.145874 19.8543 4.55773 19.8543 10C19.8543 15.4423 15.4425 19.8542 10.0002 19.8542C4.55786 19.8542 0.145996 15.4423 0.145996 10ZM10.0002 1.52087C5.31725 1.52087 1.521 5.31713 1.521 10C1.521 14.683 5.31725 18.4792 10.0002 18.4792C14.6831 18.4792 18.4793 14.683 18.4793 10C18.4793 5.31713 14.6831 1.52087 10.0002 1.52087Z" fill="black"/>
</svg>
