<svg width="22" height="22" viewBox="0 0 22 22" fill="none" xmlns="http://www.w3.org/2000/svg">
<path fill-rule="evenodd" clip-rule="evenodd" d="M8.19986 1.14587H13.8005C15.0541 1.14586 16.0645 1.14584 16.8593 1.25269C17.6844 1.36362 18.3791 1.60094 18.9308 2.1527C19.4826 2.70445 19.7199 3.39917 19.8309 4.22427C19.9377 5.01899 19.9377 6.02945 19.9377 7.28308V14.717C19.9377 15.9706 19.9377 16.9811 19.8309 17.7758C19.7199 18.6009 19.4826 19.2956 18.9308 19.8474C18.3791 20.3991 17.6844 20.6365 16.8593 20.7474C16.0645 20.8542 15.0541 20.8542 13.8005 20.8542H8.19986C7.91248 20.8542 7.63787 20.8542 7.37571 20.8529C7.36175 20.8538 7.34767 20.8542 7.3335 20.8542C7.31671 20.8542 7.30007 20.8536 7.28359 20.8524C6.44255 20.8472 5.73213 20.8269 5.14106 20.7474C4.31596 20.6365 3.62124 20.3991 3.06948 19.8474C2.51773 19.2956 2.28041 18.6009 2.16948 17.7758C2.08136 17.1205 2.06592 16.3184 2.06323 15.3542H1.8335C1.4538 15.3542 1.146 15.0464 1.146 14.6667C1.146 14.287 1.4538 13.9792 1.8335 13.9792H2.06266V11.6875H1.8335C1.4538 11.6875 1.146 11.3797 1.146 11C1.146 10.6203 1.4538 10.3125 1.8335 10.3125H2.06266V8.02087H1.8335C1.4538 8.02087 1.146 7.71307 1.146 7.33337C1.146 6.95368 1.4538 6.64587 1.8335 6.64587H2.06323C2.06592 5.68171 2.08136 4.87963 2.16948 4.22427C2.28041 3.39917 2.51773 2.70445 3.06948 2.1527C3.62124 1.60094 4.31596 1.36362 5.14106 1.25269C5.93578 1.14584 6.94624 1.14586 8.19986 1.14587ZM3.43766 8.02087H3.66683C4.04653 8.02087 4.35433 7.71307 4.35433 7.33337C4.35433 6.95368 4.04653 6.64587 3.66683 6.64587H3.43837C3.44131 5.68723 3.45627 4.97238 3.53221 4.40749C3.62265 3.73486 3.78806 3.37867 4.04175 3.12497C4.29545 2.87127 4.65165 2.70586 5.32427 2.61543C5.69248 2.56592 6.12439 2.54233 6.646 2.53109V19.469C6.12439 19.4578 5.69248 19.4342 5.32427 19.3847C4.65164 19.2942 4.29545 19.1288 4.04175 18.8751C3.78806 18.6214 3.62265 18.2652 3.53221 17.5926C3.45627 17.0277 3.44131 16.3129 3.43837 15.3542H3.66683C4.04653 15.3542 4.35433 15.0464 4.35433 14.6667C4.35433 14.287 4.04653 13.9792 3.66683 13.9792H3.43766V11.6875H3.66683C4.04653 11.6875 4.35433 11.3797 4.35433 11C4.35433 10.6203 4.04653 10.3125 3.66683 10.3125H3.43766V8.02087ZM8.021 19.4792C8.09602 19.4792 8.17239 19.4792 8.25016 19.4792H13.7502C15.066 19.4792 15.9836 19.4777 16.6761 19.3847C17.3487 19.2942 17.7049 19.1288 17.9586 18.8751C18.2123 18.6214 18.3777 18.2652 18.4681 17.5926C18.5612 16.9002 18.5627 15.9825 18.5627 14.6667V7.33337C18.5627 6.01758 18.5612 5.09989 18.4681 4.40749C18.3777 3.73486 18.2123 3.37867 17.9586 3.12497C17.7049 2.87127 17.3487 2.70586 16.6761 2.61543C15.9836 2.52234 15.066 2.52088 13.7502 2.52088H8.25016C8.17239 2.52088 8.09602 2.52088 8.021 2.52091V19.4792ZM9.85433 5.95837C9.85433 5.57868 10.1621 5.27087 10.5418 5.27087H15.1252C15.5049 5.27087 15.8127 5.57868 15.8127 5.95837C15.8127 6.33807 15.5049 6.64587 15.1252 6.64587H10.5418C10.1621 6.64587 9.85433 6.33807 9.85433 5.95837ZM9.85433 9.16671C9.85433 8.78701 10.1621 8.47921 10.5418 8.47921H15.1252C15.5049 8.47921 15.8127 8.78701 15.8127 9.16671C15.8127 9.5464 15.5049 9.85421 15.1252 9.85421H10.5418C10.1621 9.85421 9.85433 9.5464 9.85433 9.16671Z" fill="#1C1C1C"/>
</svg>
