<svg width="24" height="24" viewBox="0 0 24 24" fill="none" xmlns="http://www.w3.org/2000/svg">
<path fill-rule="evenodd" clip-rule="evenodd" d="M9.6239 10.1V6C9.6239 5.44772 9.17618 5 8.6239 5H8.2369C7.68461 5 7.2369 5.44772 7.2369 6V10.1C6.03881 10.5838 5.25439 11.7464 5.25439 13.0385C5.25439 14.3306 6.03881 15.4932 7.2369 15.977V18C7.2369 18.5523 7.68461 19 8.2369 19H8.6249C9.17718 19 9.6249 18.5523 9.6249 18V15.976C10.823 15.4922 11.6074 14.3296 11.6074 13.0375C11.6074 11.7454 10.823 10.5828 9.6249 10.099L9.6239 10.1ZM8.4299 14.213C7.78041 14.2124 7.25434 13.6855 7.2549 13.036C7.25545 12.3865 7.78241 11.8604 8.4319 11.861C9.08138 11.8616 9.60745 12.3885 9.6069 13.038C9.60579 13.6873 9.07915 14.213 8.4299 14.213ZM16.6779 8.023V6C16.6779 5.44772 16.2302 5 15.6779 5H15.2899C14.7376 5 14.2899 5.44772 14.2899 6V8.024C13.0918 8.50776 12.3074 9.67044 12.3074 10.9625C12.3074 12.2546 13.0918 13.4172 14.2899 13.901V18C14.2899 18.5523 14.7376 19 15.2899 19H15.6779C16.2302 19 16.6779 18.5523 16.6779 18V13.9C17.876 13.4162 18.6604 12.2536 18.6604 10.9615C18.6604 9.66944 17.876 8.50676 16.6779 8.023ZM15.4839 12.138C14.8344 12.138 14.3079 11.6115 14.3079 10.962C14.3079 10.3125 14.8344 9.786 15.4839 9.786C16.1334 9.786 16.6599 10.3125 16.6599 10.962C16.6593 11.6113 16.1332 12.1374 15.4839 12.138Z" fill="#C1C7D0"/>
</svg>
