<svg width="18" height="22" viewBox="0 0 18 22" fill="none" xmlns="http://www.w3.org/2000/svg">
<path fill-rule="evenodd" clip-rule="evenodd" d="M6.25961 2.09862C6.6636 1.0878 7.99484 0.462826 9.02722 1.24926C10.7471 2.55941 12.9044 4.48556 14.6398 6.68871C16.3595 8.87204 17.75 11.4348 17.75 14.0001C17.75 16.2933 17.0398 17.9976 16.0117 19.2181C14.9933 20.427 13.6994 21.1193 12.5816 21.4672C12.0076 21.6458 11.4825 21.3826 11.2275 20.9546C10.9871 20.5512 10.9859 20.0148 11.2863 19.5831C12.1436 18.3511 13.05 16.5794 13.05 15.0001C13.05 14.2165 12.7123 13.289 12.1668 12.3372C11.7566 11.6215 11.2539 10.9352 10.7643 10.3465C10.6627 11.7494 10.3578 13.5121 9.41196 14.9697C8.98216 15.632 8.02667 15.706 7.518 15.0627C7.35916 14.8619 7.20233 14.6413 7.05877 14.4394C7.05012 14.4272 7.04152 14.4151 7.03297 14.4031C6.9545 14.2928 6.87986 14.1882 6.80763 14.0901C6.12187 14.7731 5.48333 15.5903 5.48333 16.5001C5.48333 17.3038 5.88448 18.4026 6.35898 19.3335C6.61561 19.837 6.50832 20.3951 6.1994 20.7606C5.87092 21.1493 5.27312 21.3491 4.70569 21.0207C2.76159 19.8953 0.25 17.4917 0.25 14.0001C0.25 13.0531 0.571094 12.0736 1.0203 11.1169C1.47254 10.1536 2.0858 9.15005 2.72984 8.14745C2.95297 7.8001 3.17941 7.45312 3.40546 7.10674C4.51002 5.41417 5.60528 3.73586 6.25961 2.09862ZM7.89831 2.41749C7.79576 2.45298 7.69916 2.53852 7.65249 2.6553C6.93718 4.4451 5.74008 6.27719 4.63532 7.96796C4.41569 8.30409 4.19971 8.63464 3.99189 8.95816C3.35264 9.95328 2.78547 10.8867 2.3781 11.7544C1.96769 12.6285 1.75 13.3738 1.75 14.0001C1.75 16.2946 3.15653 18.0762 4.63307 19.1783C4.27845 18.3371 3.98333 17.3671 3.98333 16.5001C3.98333 14.7694 5.2827 13.4629 6.00894 12.7753C6.47929 12.3299 7.29139 12.29 7.76469 12.8741C7.9359 13.0854 8.10319 13.3198 8.2553 13.5337L8.27337 13.5591C8.31605 13.6191 8.3576 13.6775 8.39829 13.7343C9.0671 12.4599 9.25434 10.9056 9.30116 9.62629C9.32042 9.09985 9.64676 8.6835 10.0747 8.50941C10.5118 8.33159 11.0549 8.40993 11.4285 8.82325L10.8721 9.32616L11.4285 8.82325C12.0949 9.56051 12.8626 10.5348 13.4682 11.5913C14.0657 12.6337 14.55 13.833 14.55 15.0001C14.55 16.6927 13.7822 18.4101 13.0062 19.6886C13.6582 19.3693 14.3159 18.9029 14.8644 18.2517C15.6512 17.3177 16.25 15.9612 16.25 14.0001C16.25 11.9434 15.1125 9.71312 13.4614 7.61685C11.8259 5.54039 9.76957 3.7004 8.11826 2.44249C8.06361 2.40085 7.993 2.38472 7.89831 2.41749Z" fill="#1C1C1C"/>
</svg>
