<svg width="16" height="16" viewBox="0 0 16 16" fill="none" xmlns="http://www.w3.org/2000/svg">
<path d="M6.70841 2.95826H2.75008C2.33016 2.95826 1.92743 3.12507 1.6305 3.42201C1.33356 3.71894 1.16675 4.12167 1.16675 4.54159V13.2499C1.16675 13.6699 1.33356 14.0726 1.6305 14.3695C1.92743 14.6664 2.33016 14.8333 2.75008 14.8333H11.4584C11.8783 14.8333 12.2811 14.6664 12.578 14.3695C12.8749 14.0726 13.0417 13.6699 13.0417 13.2499V9.29159M11.9223 1.83884C12.0684 1.68762 12.2431 1.567 12.4363 1.48401C12.6294 1.40103 12.8372 1.35736 13.0474 1.35553C13.2577 1.3537 13.4662 1.39376 13.6608 1.47337C13.8553 1.55299 14.0321 1.67055 14.1808 1.81922C14.3295 1.96788 14.447 2.14466 14.5266 2.33925C14.6062 2.53383 14.6463 2.74233 14.6445 2.95256C14.6427 3.16279 14.599 3.37056 14.516 3.56373C14.433 3.75691 14.3124 3.93162 14.1612 4.07768L7.36391 10.8749H5.12508V8.63609L11.9223 1.83884Z" stroke="#374151" stroke-width="1.5" stroke-linecap="round" stroke-linejoin="round"/>
</svg>
